# xmcd
#
# Track frame offsets:
# 150
# 14784
# 26795
# 44547
# 65708
# 78905
# 104259
# 115643
# 140813
# 162413
# 175809
# 191971
#
# Disc length: 2821 seconds
#
#
# Revision: 4
# Processed by: cddbd v1.5.1PL2 Copyright (c) Steve Scherf et al.
# Submitted via: FreeRIP 2.945 
#
DISCID=af0b030c
DTITLE=John Mayall - Empty Rooms
DYEAR=1970
DGENRE=Blues
TTITLE0=Don´t Waste My Time
TTITLE1=Plan Your Revolution
TTITLE2=Don´t Pick A Flower
TTITLE3=Something New
TTITLE4=People Cling Together
TTITLE5=Waiting For The Right Time
TTITLE6=Thinking Of My Woman
TTITLE7=Counting The Days
TTITLE8=When I Go
TTITLE9=Many Miles Apart
TTITLE10=To A Princess
TTITLE11=Lying In My Bed
EXTD=
EXTT0=
EXTT1=
EXTT2=
EXTT3=
EXTT4=
EXTT5=
EXTT6=
EXTT7=
EXTT8=
EXTT9=
EXTT10=
EXTT11=
PLAYORDER=
